<svg xmlns="http://www.w3.org/2000/svg" width="64" height="64" viewBox="0 0 64 64" role="img" aria-label="Face Shape Detector logo">
  <rect width="64" height="64" rx="18" fill="#6d4aff"/>
  <path d="M32 12c-11 0-17 8-17 20 0 12.5 7.6 21 17 21s17-8.5 17-21c0-12-6-20-17-20Z" fill="none" stroke="#fff" stroke-width="3"/>
  <circle cx="25" cy="30" r="2" fill="#fff"/><circle cx="39" cy="30" r="2" fill="#fff"/>
  <path d="M26 40c3.7 3 8.3 3 12 0" fill="none" stroke="#fff" stroke-width="2.5" stroke-linecap="round"/>
  <path d="M10 24v-7a7 7 0 0 1 7-7h7M40 10h7a7 7 0 0 1 7 7v7M54 40v7a7 7 0 0 1-7 7h-7M24 54h-7a7 7 0 0 1-7-7v-7" fill="none" stroke="#dcd3ff" stroke-width="2.5" stroke-linecap="round"/>
</svg>
